<?xml version="1.0" standalone="no"?>
<!DOCTYPE svg PUBLIC "-//W3C//DTD SVG 20010904//EN"
 "http://www.w3.org/TR/2001/REC-SVG-20010904/DTD/svg10.dtd">
<svg version="1.0" xmlns="http://www.w3.org/2000/svg"
 width="673.000000pt" height="673.000000pt" viewBox="0 0 673.000000 673.000000"
 preserveAspectRatio="xMidYMid meet">
<metadata>
Created by potrace 1.11, written by Peter Selinger 2001-2013
</metadata>
<g transform="translate(0.000000,673.000000) scale(0.100000,-0.100000)"
fill="#000000" stroke="none">
<path d="M0 3370 l0 -2880 353 0 354 0 11 25 c16 34 15 38 -3 31 -18 -7 -19 4
-3 56 10 33 9 41 -3 49 -10 6 -10 9 -1 9 6 0 12 11 12 24 0 14 4 28 10 31 5 3
10 17 10 30 0 13 4 26 10 30 5 3 6 13 3 22 -3 9 0 21 8 27 8 6 20 30 27 54 7
23 16 42 20 42 9 0 24 37 51 126 12 38 30 88 41 109 11 22 20 49 20 62 0 12 6
37 14 55 8 18 33 92 56 163 36 112 134 365 160 414 5 9 17 37 27 63 10 27 21
48 26 48 4 0 7 9 7 20 0 18 17 57 30 70 3 3 25 30 50 60 24 30 66 76 92 101
26 25 48 52 48 60 0 9 13 28 29 43 18 17 32 43 36 69 17 95 20 100 50 94 22
-4 25 -1 20 17 -4 14 -3 17 3 8 9 -13 55 -12 68 1 13 13 -18 37 -41 31 -25 -6
-89 28 -77 41 4 4 0 6 -9 2 -19 -6 -59 34 -59 58 0 8 -12 18 -26 21 -26 7 -82
54 -64 54 6 0 10 4 10 10 0 5 -13 7 -32 3 -21 -4 -29 -3 -24 5 3 5 0 13 -6 15
-10 4 -10 6 0 6 20 2 13 21 -8 21 -11 0 -20 7 -20 15 0 8 -9 15 -20 15 -22 0
-27 16 -8 22 8 3 4 9 -10 17 -12 6 -22 18 -22 26 0 8 -4 15 -9 15 -13 0 -53
79 -46 91 4 5 -1 9 -9 9 -15 0 -49 57 -41 70 3 4 -2 24 -10 44 -8 20 -13 36
-10 36 2 0 -1 12 -7 28 -13 31 -29 115 -30 155 -1 15 -5 27 -9 27 -5 0 -4 12
2 28 13 32 13 106 0 110 -5 2 2 15 15 29 13 14 24 31 24 38 0 7 10 24 21 39
15 19 18 31 11 38 -8 8 -17 1 -31 -23 l-21 -34 0 36 c0 20 3 39 7 43 5 4 8 11
8 14 2 21 32 97 66 162 22 42 39 81 39 87 0 7 6 16 13 20 6 4 26 29 44 54 34
48 64 85 126 155 21 24 36 48 32 54 -3 5 0 10 8 10 7 0 22 8 33 18 10 9 31 23
46 31 30 16 36 22 108 131 87 132 147 177 194 147 27 -18 41 -79 25 -109 -15
-29 14 -33 84 -13 34 10 66 21 71 24 6 2 37 6 70 9 34 2 64 8 67 14 4 6 16 7
27 4 11 -4 23 -2 27 4 4 6 20 8 40 4 54 -10 96 -14 175 -16 41 -2 78 -6 81
-11 3 -4 28 -9 55 -12 79 -7 184 -24 202 -34 9 -5 36 -11 60 -14 24 -2 49 -10
55 -16 6 -6 21 -11 34 -11 22 0 87 -25 146 -56 15 -9 27 -13 27 -9 0 3 13 -1
29 -9 22 -12 54 -14 132 -11 106 4 195 -12 229 -40 8 -7 25 -16 36 -19 12 -4
29 -15 39 -26 10 -11 24 -20 32 -20 7 0 13 -6 13 -12 0 -7 18 -21 40 -31 22
-10 38 -22 35 -27 -5 -9 50 -75 63 -75 11 -1 55 -27 67 -39 5 -6 11 -28 13
-49 3 -53 17 -76 42 -70 11 3 20 0 20 -6 0 -6 -5 -11 -11 -11 -12 0 -3 -58 13
-77 5 -7 7 -17 3 -23 -4 -6 -2 -17 4 -24 7 -8 9 -37 5 -77 -3 -35 -7 -84 -8
-109 -1 -25 -8 -55 -15 -68 -7 -13 -10 -30 -7 -38 3 -8 0 -25 -6 -39 -9 -20
-8 -28 5 -43 20 -22 22 -34 5 -31 -44 7 -67 -44 -24 -55 14 -3 26 -16 30 -29
3 -12 26 -38 51 -57 25 -18 45 -39 45 -45 0 -7 13 -32 30 -56 16 -24 30 -55
30 -69 0 -14 7 -34 15 -44 8 -11 15 -30 15 -43 0 -13 4 -23 9 -23 5 0 13 -9
16 -21 4 -11 21 -36 37 -55 31 -36 47 -61 92 -145 13 -25 32 -51 40 -58 9 -8
16 -19 16 -26 0 -7 18 -33 40 -58 22 -25 40 -50 40 -56 0 -6 4 -11 9 -11 19 0
83 -110 78 -132 -4 -13 2 -31 14 -46 10 -14 19 -38 19 -54 0 -16 7 -43 16 -60
9 -18 18 -55 19 -84 3 -48 28 -130 70 -227 8 -21 20 -61 26 -90 5 -29 20 -75
34 -103 14 -28 25 -57 25 -65 0 -8 11 -34 23 -59 19 -36 24 -62 25 -127 1 -65
7 -93 28 -139 25 -56 57 -159 84 -274 7 -30 16 -59 20 -65 8 -11 17 -73 26
-195 6 -84 -10 -147 -42 -164 -10 -6 -23 -16 -29 -22 -5 -6 -22 -18 -37 -27
-16 -10 -28 -22 -28 -27 0 -7 364 -10 1025 -10 l1025 0 0 2880 0 2880 -3365 0
-3365 0 0 -2880z m3065 1920 c-3 -5 -12 -10 -18 -10 -7 0 -6 4 3 10 19 12 23
12 15 0z m108 3 c-7 -2 -19 -2 -25 0 -7 3 -2 5 12 5 14 0 19 -2 13 -5z m107
-23 c8 -5 11 -10 5 -10 -5 0 -17 5 -25 10 -8 5 -10 10 -5 10 6 0 17 -5 25 -10z
m-139 -30 c49 -14 104 -47 141 -86 43 -46 61 -100 60 -182 0 -63 -6 -85 -36
-149 -35 -73 -106 -172 -160 -222 -14 -13 -23 -28 -19 -34 3 -6 1 -7 -6 -3 -7
4 -26 -5 -46 -23 -40 -35 -124 -86 -131 -79 -2 3 2 32 10 64 29 119 29 112 -1
116 -19 2 -29 10 -33 28 -9 35 -2 49 21 43 22 -6 25 -19 7 -26 -7 -2 -10 -8
-6 -12 5 -5 17 0 28 10 22 20 26 35 8 35 -16 0 -58 41 -58 57 0 7 7 13 16 13
8 0 12 -5 9 -11 -8 -12 24 -51 36 -43 13 8 11 65 -5 117 -31 104 -96 151 -211
151 -111 -1 -220 -49 -317 -142 -21 -20 -38 -33 -38 -29 0 20 74 119 136 183
181 186 413 273 595 224z m324 -175 c4 -22 3 -36 -1 -32 -4 4 -9 15 -10 25 -2
9 -5 31 -8 47 -4 19 -3 25 3 15 5 -8 12 -33 16 -55z m-20 -133 c-7 -41 -18
-79 -23 -84 -8 -8 -10 -5 -7 8 22 108 27 131 31 143 11 34 10 0 -1 -67z
m-1065 -241 c0 -12 -20 -25 -27 -18 -7 7 6 27 18 27 5 0 9 -4 9 -9z m38 -67
c15 -32 10 -30 -16 6 -13 17 -17 27 -8 24 7 -3 18 -16 24 -30z m642 -158 c0
-18 -178 -102 -201 -94 -12 4 75 50 121 63 14 4 34 14 45 21 19 13 35 18 35
10z"/>
<path d="M1645 3912 c-27 -7 -65 -17 -84 -22 -18 -5 -39 -14 -45 -20 -8 -9 -6
-11 9 -6 73 20 191 36 323 42 91 4 148 10 140 15 -20 14 -287 7 -343 -9z"/>
<path d="M2024 3921 c8 -12 81 -22 103 -14 14 6 8 9 -22 15 -56 10 -87 10 -81
-1z"/>
<path d="M2180 3910 c-19 -6 -11 -8 33 -9 36 -1 56 3 52 9 -7 12 -49 12 -85 0z"/>
<path d="M2330 3901 c8 -5 63 -14 121 -20 58 -6 121 -16 140 -21 18 -6 72 -12
119 -15 47 -4 105 -10 130 -15 25 -6 109 -23 188 -40 78 -16 154 -30 168 -30
14 0 33 -4 42 -9 9 -5 37 -11 61 -15 43 -6 44 -6 26 14 -10 11 -34 22 -54 26
-20 3 -66 15 -103 26 -37 11 -76 17 -87 13 -10 -3 -41 -1 -67 5 -73 17 -203
40 -259 46 -27 2 -100 14 -162 24 -113 20 -292 27 -263 11z"/>
<path d="M1260 3785 c-14 -8 -33 -12 -42 -9 -14 4 -18 -1 -18 -20 0 -17 -12
-34 -35 -53 -34 -27 -45 -56 -25 -68 6 -3 10 0 10 8 0 8 7 17 15 20 8 4 27 24
43 46 16 22 32 38 35 34 4 -3 14 0 23 8 9 8 33 22 53 31 l36 17 -35 0 c-19 0
-46 -6 -60 -14z"/>
<path d="M1940 2558 c-19 -5 -39 -14 -44 -19 -6 -5 -18 -9 -27 -9 -10 0 -25
-7 -33 -16 -9 -8 -20 -13 -25 -10 -4 3 -32 -3 -62 -14 l-54 -19 47 -1 c43 0
95 15 108 31 3 3 34 17 70 29 95 34 109 53 20 28z"/>
<path d="M1660 2501 c0 -6 5 -13 12 -17 6 -4 8 -3 4 4 -3 5 0 13 6 15 8 3 6 6
-4 6 -10 1 -18 -3 -18 -8z"/>
</g>
</svg>
